HIERARCHY
ROOT Hips
{
	OFFSET 0.000000 0.000000 0.000000
	CHANNELS 6 Xposition Yposition Zposition Zrotation Yrotation Xrotation 
	JOINT LHipJoint
	{
		OFFSET 0.000000 0.000000 0.000000
		CHANNELS 3 Zrotation Yrotation Xrotation
		JOINT LeftUpLeg
		{
			OFFSET 1.363060 -1.794630 0.839290
			CHANNELS 3 Zrotation Yrotation Xrotation
			JOINT LeftLeg
			{
				OFFSET 2.448110 -6.726130 0.000000
				CHANNELS 3 Zrotation Yrotation Xrotation
				JOINT LeftFoot
				{
					OFFSET 2.562200 -7.039590 0.000000
					CHANNELS 3 Zrotation Yrotation Xrotation
					JOINT LeftToeBase
					{
						OFFSET 0.157640 -0.433110 2.322550
						CHANNELS 3 Zrotation Yrotation Xrotation
						End Site
						{
							OFFSET 0.000000 0.000000 0.000000
						}
					}
				}
			}
		}
	}
	JOINT RHipJoint
	{
		OFFSET 0.000000 0.000000 0.000000
		CHANNELS 3 Zrotation Yrotation Xrotation
		JOINT RightUpLeg
		{
			OFFSET -1.305520 -1.794630 0.839290
			CHANNELS 3 Zrotation Yrotation Xrotation
			JOINT RightLeg
			{
				OFFSET -2.542530 -6.985550 0.000000
				CHANNELS 3 Zrotation Yrotation Xrotation
				JOINT RightFoot
				{
					OFFSET -2.568260 -7.056230 0.000000
					CHANNELS 3 Zrotation Yrotation Xrotation
					JOINT RightToeBase
					{
						OFFSET -0.164730 -0.452590 2.363150
						CHANNELS 3 Zrotation Yrotation Xrotation
						End Site
						{
							OFFSET 0.000000 0.000000 0.000000
						}
					}
				}
			}
		}
	}
	JOINT LowerBack
	{
		OFFSET 0.000000 0.000000 0.000000
		CHANNELS 3 Zrotation Yrotation Xrotation
		JOINT Spine
		{
			OFFSET 0.028270 2.035590 -0.193380
			CHANNELS 3 Zrotation Yrotation Xrotation
			JOINT Spine1
			{
				OFFSET 0.056720 2.048850 -0.042750
				CHANNELS 3 Zrotation Yrotation Xrotation
				JOINT Neck
				{
					OFFSET 0.000000 0.000000 0.000000
					CHANNELS 3 Zrotation Yrotation Xrotation
					JOINT Neck1
					{
						OFFSET -0.054170 1.746240 0.172020
						CHANNELS 3 Zrotation Yrotation Xrotation
						JOINT Head
						{
							OFFSET 0.104070 1.761360 -0.123970
							CHANNELS 3 Zrotation Yrotation Xrotation
							End Site
							{
								OFFSET 0.000000 0.000000 0.000000
							}
						}
					}
				}
				JOINT LeftShoulder
				{
					OFFSET 0.000000 0.000000 0.000000
					CHANNELS 3 Zrotation Yrotation Xrotation
					JOINT LeftArm
					{
						OFFSET 3.362410 1.200890 -0.311210
						CHANNELS 3 Zrotation Yrotation Xrotation
						JOINT LeftForeArm
						{
							OFFSET 4.983000 -0.000000 -0.000000
							CHANNELS 3 Zrotation Yrotation Xrotation
							JOINT LeftHand
							{
								OFFSET 3.483560 -0.000000 -0.000000
								CHANNELS 3 Zrotation Yrotation Xrotation
								JOINT LeftFingerBase
								{
									OFFSET 0.000000 0.000000 0.000000
									CHANNELS 3 Zrotation Yrotation Xrotation
									JOINT LeftHandIndex1
									{
										OFFSET 0.715260 -0.000000 -0.000000
										CHANNELS 3 Zrotation Yrotation Xrotation
										End Site
										{
											OFFSET 0.000000 0.000000 0.000000
										}
									}
								}
								JOINT LThumb
								{
									OFFSET 0.000000 0.000000 0.000000
									CHANNELS 3 Zrotation Yrotation Xrotation
									End Site
									{
										OFFSET 0.000000 0.000000 0.000000
									}
								}
							}
						}
					}
				}
				JOINT RightShoulder
				{
					OFFSET 0.000000 0.000000 0.000000
					CHANNELS 3 Zrotation Yrotation Xrotation
					JOINT RightArm
					{
						OFFSET -3.136600 1.374050 -0.404650
						CHANNELS 3 Zrotation Yrotation Xrotation
						JOINT RightForeArm
						{
							OFFSET -5.241900 -0.000000 -0.000000
							CHANNELS 3 Zrotation Yrotation Xrotation
							JOINT RightHand
							{
								OFFSET -3.444170 -0.000000 -0.000000
								CHANNELS 3 Zrotation Yrotation Xrotation
								JOINT RightFingerBase
								{
									OFFSET 0.000000 0.000000 0.000000
									CHANNELS 3 Zrotation Yrotation Xrotation
									JOINT RightHandIndex1
									{
										OFFSET -0.622530 -0.000000 -0.000000
										CHANNELS 3 Zrotation Yrotation Xrotation
										End Site
										{
											OFFSET 0.000000 0.000000 0.000000
										}
									}
								}
								JOINT RThumb
								{
									OFFSET 0.000000 0.000000 0.000000
									CHANNELS 3 Zrotation Yrotation Xrotation
									End Site
									{
										OFFSET 0.000000 0.000000 0.000000
									}
								}
							}
						}
					}
				}
			}
		}
	}
}
MOTION
Frames: 7
Frame Time: 0.008333
10.980091 15.407357 22.591126 0.807889 -1.601155 3.433184 -7.493364 -14.332443 -18.911093 23.075441 13.583995 -41.110635 -38.988331 18.083787 16.934307 19.585681 18.641623 63.944331 0.982600 -6.309700 -17.685700 6.434597 6.163560 -17.688425 -12.244104 -19.182591 -49.731039 26.731277 -25.637713 17.955791 -16.213167 -24.965735 59.503457 -0.021000 0.935200 -2.570400 -2.447677 -0.105307 22.313206 0.757737 0.094636 -7.503738 -0.718160 0.514872 -16.841122 -6.013647 -5.087246 -15.819478 6.244345 -5.655549 7.778705 2.865200 -2.878700 11.583000 -17.604937 -20.463922 -0.488169 -52.145157 -12.665748 66.401849 31.794547 -30.669612 -17.330916 -0.922832 -5.454906 20.976562 7.525509 12.955917 2.077400 -7.125000 0.000000 0.000000 -20.583800 47.451700 -1.297800 17.152121 21.226603 1.461302 49.088603 10.996911 64.983982 -37.361672 34.523115 -18.309638 -0.206745 1.183933 24.746841 -17.502463 -4.962727 1.815800 7.125000 0.000000 0.000000 8.307000 -36.157400 1.821500 
10.979096 15.401528 22.584160 0.815967 -1.547149 3.336142 -7.533245 -14.408428 -18.858468 23.108649 13.576688 -41.057639 -38.966789 18.145817 16.880315 19.584215 18.544984 63.960480 0.979100 -6.298800 -17.654000 6.431513 6.044979 -17.663614 -12.497951 -18.965856 -49.589541 26.952360 -25.600009 17.818434 -16.271019 -24.998341 59.554298 -0.021600 0.948100 -2.605900 -2.391872 -0.126505 22.454508 0.749228 0.074646 -7.513896 -0.715015 0.489293 -16.901443 -6.023772 -5.104027 -15.876998 6.236659 -5.680776 7.810967 2.845800 -2.887400 11.668300 -17.608389 -20.481586 -0.504527 -52.177960 -12.609455 66.251294 31.802397 -30.676380 -17.347770 -1.008363 -5.409753 20.999855 7.847768 13.132812 2.230400 -7.125000 0.000000 0.000000 -20.276500 47.664600 -1.387200 17.171941 21.231840 1.460950 49.001417 10.960997 65.000822 -37.393502 34.531066 -18.350482 -0.149012 1.100803 24.698662 -18.023257 -5.109432 1.915000 7.125000 0.000000 0.000000 7.813500 -36.288300 1.686400 
10.978101 15.395841 22.577336 0.821399 -1.484082 3.234264 -7.580431 -14.533754 -18.816442 23.201431 13.524160 -40.945273 -38.983476 18.163720 16.813249 19.596247 18.384269 64.014509 0.973300 -6.280800 -17.601200 6.433152 5.909022 -17.652112 -12.792517 -18.704980 -49.426225 27.203407 -25.549776 17.658201 -16.330776 -25.096363 59.594491 -0.020800 0.930400 -2.557400 -2.341759 -0.157829 22.624129 0.740881 0.042852 -7.521817 -0.701243 0.461372 -16.998174 -6.053541 -5.140872 -15.824802 6.237460 -5.729423 7.814724 2.842200 -2.911800 11.681400 -17.620847 -20.499768 -0.512790 -52.198572 -12.558865 66.061964 31.781292 -30.669136 -17.352257 -1.068203 -5.391482 21.093214 8.004079 13.291226 2.317800 -7.125000 0.000000 0.000000 -20.153700 47.845600 -1.471400 17.194618 21.234962 1.465567 48.929043 10.936263 64.995684 -37.381800 34.520450 -18.361465 -0.105725 1.014687 24.731253 -18.515655 -5.199735 1.990200 7.125000 0.000000 0.000000 7.344600 -36.348100 1.573000 
10.978527 15.393993 22.573781 0.815871 -1.364605 3.166845 -7.648653 -14.705201 -18.784660 23.173559 13.569870 -40.898859 -38.874561 18.256263 16.835297 19.570210 18.173767 64.046569 0.975900 -6.288700 -17.624300 6.385646 5.680517 -17.645897 -13.184707 -18.368545 -49.238311 27.666053 -25.411392 17.423442 -16.437338 -25.239869 59.668588 -0.020000 0.913700 -2.511500 -2.235459 -0.197823 22.690925 0.712103 0.025298 -7.519240 -0.710329 0.403416 -17.012517 -6.086401 -5.175592 -15.863253 6.242611 -5.766261 7.838588 2.851600 -2.928600 11.744900 -17.622912 -20.525219 -0.518411 -52.214746 -12.549063 65.909223 31.791513 -30.673161 -17.374597 -1.118138 -5.362617 21.295693 8.154672 13.419590 2.393900 -7.125000 0.000000 0.000000 -20.031500 47.982100 -1.531500 17.199416 21.221720 1.456451 48.874638 10.913395 64.872290 -37.333267 34.500167 -18.364528 -0.055574 0.923114 25.002776 -19.006080 -5.375215 2.093800 7.125000 0.000000 0.000000 6.882300 -36.492700 1.448300 
10.978527 15.390297 22.569801 0.817314 -1.261701 3.088639 -7.708845 -14.875481 -18.755951 23.207515 13.563322 -40.812473 -38.828768 18.302168 16.829846 19.559383 17.989150 64.097246 0.978000 -6.295200 -17.643500 6.353719 5.489963 -17.647343 -13.534215 -18.052598 -49.051268 28.038905 -25.302699 17.215518 -16.522547 -25.358648 59.740118 -0.019900 0.910200 -2.501800 -2.154504 -0.236973 22.781235 0.694098 0.001128 -7.518773 -0.710944 0.356814 -17.044803 -6.114300 -5.207579 -15.877090 6.245382 -5.803483 7.857659 2.854600 -2.945800 11.794500 -17.624129 -20.543882 -0.527022 -52.237843 -12.517087 65.731880 31.806706 -30.686145 -17.408696 -1.166988 -5.336359 21.493673 8.299890 13.549375 2.468800 -7.125000 0.000000 0.000000 -19.916900 48.121300 -1.592800 17.205476 21.210997 1.450901 48.822874 10.891101 64.792558 -37.315651 34.493833 -18.384945 -0.004756 0.836561 25.196350 -19.493936 -5.548119 2.201000 7.125000 0.000000 0.000000 6.420800 -36.641700 1.326700 
10.978527 15.387169 22.566246 0.820999 -1.144877 3.009232 -7.776002 -15.074097 -18.732356 23.257371 13.541011 -40.704279 -38.789209 18.339872 16.831607 19.546393 17.799454 64.159296 0.982000 -6.308000 -17.680700 6.315696 5.282805 -17.657434 -13.916264 -17.698452 -48.838141 28.448613 -25.176466 16.983791 -16.614164 -25.489760 59.825816 -0.019700 0.906900 -2.492600 -2.074239 -0.281538 22.862886 0.675860 -0.025966 -7.515265 -0.708813 0.305894 -17.066614 -6.145046 -5.239885 -15.890381 6.249731 -5.839532 7.875713 2.860600 -2.962600 11.841600 -17.620914 -20.560846 -0.535573 -52.264416 -12.484663 65.542865 31.838911 -30.711149 -17.460837 -1.208018 -5.308587 21.747212 8.426677 13.662144 2.531700 -7.125000 0.000000 0.000000 -19.820700 48.236200 -1.642600 17.205654 21.195440 1.443772 48.783717 10.872968 64.700065 -37.304066 34.492517 -18.412748 0.047443 0.749590 25.429327 -19.983929 -5.743275 2.319600 7.125000 0.000000 0.000000 5.957500 -36.815700 1.204600 
10.978527 15.384326 22.563119 0.828184 -1.017915 2.925413 -7.848307 -15.294549 -18.712914 23.331090 13.493638 -40.568607 -38.767042 18.365881 16.834180 19.532959 17.614454 64.234397 0.988400 -6.327600 -17.738000 6.274731 5.067766 -17.676325 -14.325275 -17.309608 -48.596475 28.884196 -25.037520 16.732215 -16.709269 -25.630931 59.927042 -0.019300 0.896000 -2.462800 -1.999144 -0.329898 22.939532 0.658730 -0.055398 -7.508448 -0.703444 0.252980 -17.078581 -6.177634 -5.270848 -15.904552 6.255621 -5.872272 7.893343 2.869900 -2.978100 11.887500 -17.613052 -20.575190 -0.544242 -52.292610 -12.449408 65.345014 31.891462 -30.749966 -17.532824 -1.244565 -5.273415 22.052202 8.564462 13.755260 2.593100 -7.125000 0.000000 0.000000 -19.708000 48.325300 -1.677300 17.199275 21.175638 1.435082 48.759673 10.859220 64.599495 -37.303963 34.498874 -18.450749 0.098996 0.663762 25.690295 -20.468609 -5.951890 2.446000 7.125000 0.000000 0.000000 5.499300 -37.005700 1.085600 
